<svg width="29" height="28" fill="none" xmlns="http://www.w3.org/2000/svg"><path d="M21.242 1.12a5.988 5.988 0 0 1 4.204 1.724A5.852 5.852 0 0 1 27.19 7v14a5.852 5.852 0 0 1-1.744 4.156 5.989 5.989 0 0 1-4.204 1.724H7.081a5.989 5.989 0 0 1-4.204-1.724A5.852 5.852 0 0 1 1.133 21V7a5.852 5.852 0 0 1 1.744-4.156A5.988 5.988 0 0 1 7.08 1.12h14.161zm0-1.12H7.081a7.122 7.122 0 0 0-5.007 2.05A6.96 6.96 0 0 0 0 7v14c0 .92.183 1.83.539 2.679.356.85.877 1.62 1.535 2.27A7.122 7.122 0 0 0 7.08 28h14.161c.93 0 1.85-.181 2.71-.533a7.086 7.086 0 0 0 2.297-1.517 6.996 6.996 0 0 0 1.535-2.271c.356-.85.54-1.76.54-2.679V7c0-.92-.184-1.83-.54-2.679a6.996 6.996 0 0 0-1.535-2.27A7.087 7.087 0 0 0 23.952.532 7.152 7.152 0 0 0 21.242 0z" fill="#222"/><path d="M14.161 8.4c1.12 0 2.216.328 3.147.944a5.614 5.614 0 0 1 2.087 2.513 5.54 5.54 0 0 1 .322 3.236 5.58 5.58 0 0 1-1.55 2.867 5.685 5.685 0 0 1-2.9 1.532 5.725 5.725 0 0 1-3.273-.318A5.652 5.652 0 0 1 9.45 17.11 5.555 5.555 0 0 1 8.497 14a5.57 5.57 0 0 1 1.659-3.96A5.698 5.698 0 0 1 14.16 8.4zm0-1.12a6.853 6.853 0 0 0-3.776 1.133 6.737 6.737 0 0 0-2.504 3.015 6.649 6.649 0 0 0-.387 3.883 6.696 6.696 0 0 0 1.86 3.44 6.833 6.833 0 0 0 3.481 1.84 6.87 6.87 0 0 0 3.928-.383 6.782 6.782 0 0 0 3.05-2.474A6.666 6.666 0 0 0 20.96 14a6.681 6.681 0 0 0-1.991-4.752A6.838 6.838 0 0 0 14.16 7.28zm7.931-2.8c.224 0 .443.066.63.189a1.108 1.108 0 0 1 .172 1.723 1.137 1.137 0 0 1-1.235.243 1.13 1.13 0 0 1-.509-.413 1.11 1.11 0 0 1 .14-1.414c.213-.21.502-.328.802-.328zm0-1.12c-.448 0-.886.131-1.259.377A2.245 2.245 0 0 0 20 4.743a2.217 2.217 0 0 0 .49 2.44 2.29 2.29 0 0 0 2.47.486 2.26 2.26 0 0 0 1.017-.825 2.222 2.222 0 0 0-.282-2.828 2.279 2.279 0 0 0-1.602-.656z" fill="#222"/></svg>