<svg width="29" height="28" fill="none" xmlns="http://www.w3.org/2000/svg"><path d="M21.46 0H7.54c-2 0-3.918.767-5.332 2.132A7.155 7.155 0 0 0 0 7.28v13.44c0 1.93.794 3.783 2.208 5.148A7.679 7.679 0 0 0 7.54 28h13.92c2 0 3.918-.767 5.332-2.132A7.155 7.155 0 0 0 29 20.72V7.28c0-1.93-.794-3.782-2.208-5.148A7.679 7.679 0 0 0 21.46 0zm-6.38 26.88v-9.52a.55.55 0 0 0-.17-.396.59.59 0 0 0-.41-.164h-2.9v-3.36h2.9a.59.59 0 0 0 .41-.164.55.55 0 0 0 .17-.396V8.4c0-.743.306-1.455.85-1.98a2.953 2.953 0 0 1 2.05-.82h4.64v3.36H20.3a1.77 1.77 0 0 0-1.23.492c-.327.315-.51.742-.51 1.188v2.24a.55.55 0 0 0 .17.396.59.59 0 0 0 .41.164h3.48v3.36h-3.48a.59.59 0 0 0-.41.164.55.55 0 0 0-.17.396v9.52h-3.48zm12.76-6.16c0 1.634-.672 3.2-1.869 4.356a6.497 6.497 0 0 1-4.511 1.804h-1.74v-8.96h3.48a.59.59 0 0 0 .41-.164.55.55 0 0 0 .17-.396v-4.48a.55.55 0 0 0-.17-.396.59.59 0 0 0-.41-.164h-3.48v-1.68a.55.55 0 0 1 .17-.396.59.59 0 0 1 .41-.164h2.9a.59.59 0 0 0 .41-.164.55.55 0 0 0 .17-.396V5.04a.55.55 0 0 0-.17-.396.59.59 0 0 0-.41-.164h-5.22a4.13 4.13 0 0 0-2.87 1.148A3.853 3.853 0 0 0 13.92 8.4v3.92h-2.9a.59.59 0 0 0-.41.164.55.55 0 0 0-.17.396v4.48a.55.55 0 0 0 .17.396.59.59 0 0 0 .41.164h2.9v8.96H7.54a6.498 6.498 0 0 1-4.511-1.804A6.054 6.054 0 0 1 1.16 20.72V7.28c0-1.634.672-3.2 1.869-4.356A6.497 6.497 0 0 1 7.54 1.12h13.92c1.692 0 3.315.649 4.511 1.804A6.054 6.054 0 0 1 27.84 7.28v13.44z" fill="#222"/></svg>